# xmcd
#
# Track frame offsets:
#	150
#	34868
#	63717
#	75415
#	85865
#	100462
#	112041
#	129493
#	139822
#	157496
#	175330
#	193981
#	214096
#	243835
#	267631
#	292837
#	306445
#	328198
#	338600
#
# Disc length: 4691 seconds
#
# Revision: 3
# Processed by: cddbd v1.5.2PL0 Copyright (c) Steve Scherf et al.
# Submitted via: EasyCDDAExtractor 12.0.1.1
#
DISCID=28125113
DTITLE=Various Artist - Pionierzy
DYEAR=2009
DGENRE=Blues
TTITLE0=Breakout - Piekno
TTITLE1=Ludmila Jakubczak - Alabama
TTITLE2=Czerwono-Czarni - Lucille
TTITLE3=Chocholy - Szpilki
TTITLE4=Kawalerowie - Kochaj mnie (The Right Time)
TTITLE5=Polanie - Dlaczego tak mnie traktujesz
TTITLE6=Niebiesko-Czarni - Przyszedl do mnie blues
TTITLE7=Andrzej Dabrowski - Zbuduje sobie tratwe
TTITLE8=Maciej Kossowski - Szpital sw.Jakuba
TTITLE9=Piotr Pulawski - Nobody Knows You When You Down And Out
TTITLE10=Grupa Land - Podaruj mi blues
TTITLE11=Budka Suflera - Blues George'a Maxwella
TTITLE12=Silesian Blues Band - I'm Going Home
TTITLE13=Stress - Wsrod krzyzy z ramionami
TTITLE14=Test - Po horyzontu kres
TTITLE15=Grupa Bluesowa Gramine - Weekend w Dolinie Josefata
TTITLE16=Blues And Rock - Szosta rano na trasie
TTITLE17=Homo Homini - Z godziny na godzine
TTITLE18=Apokalipsa - Daj mi znac
EXTD=
EXTT0=
EXTT1=
EXTT2=
EXTT3=
EXTT4=
EXTT5=
EXTT6=
EXTT7=
EXTT8=
EXTT9=
EXTT10=
EXTT11=
EXTT12=
EXTT13=
EXTT14=
EXTT15=
EXTT16=
EXTT17=
EXTT18=
PLAYORDER=
